<?xml version="1.0" encoding="UTF-8"?>
<svg version="1.1" xmlns="http://www.w3.org/2000/svg" width="16" height="16">
<path d="M0 0 C3.375 0.5625 3.375 0.5625 7 2 C8.69764793 5.59901361 9.17393477 7.8818479 8.5625 11.8125 C6.28178993 15.00549409 3.73389888 15.23939097 0 16 C0 15.34 0 14.68 0 14 C-0.639375 13.690625 -1.27875 13.38125 -1.9375 13.0625 C-4 12 -4 12 -5 11 C-5.375 8.25 -5.375 8.25 -5 5 C-2.5 2.125 -2.5 2.125 0 0 Z M2 4 C2 6.64 2 9.28 2 12 C2.99 11.34 3.98 10.68 5 10 C4.65555119 7.52733235 4.65555119 7.52733235 4 5 C3.34 4.67 2.68 4.34 2 4 Z M-3 8 C-3 8.66 -3 9.32 -3 10 C-2.01 10 -1.02 10 0 10 C-0.33 9.34 -0.66 8.68 -1 8 C-1.66 8 -2.32 8 -3 8 Z " fill="#000000" transform="translate(6,0)"/>
</svg>
