<?xml version="1.0" encoding="UTF-8"?>
<svg version="1.1" xmlns="http://www.w3.org/2000/svg" width="16" height="16">
<path d="M0 0 C0.66 0 1.32 0 2 0 C2.33 0.66 2.66 1.32 3 2 C3.66 1.67 4.32 1.34 5 1 C5 1.99 5 2.98 5 4 C5.99 4.33 6.98 4.66 8 5 C7.67 5.33 7.34 5.66 7 6 C7.66 6.33 8.32 6.66 9 7 C9 7.66 9 8.32 9 9 C8.01 9.495 8.01 9.495 7 10 C7.33 10.66 7.66 11.32 8 12 C7.01 12 6.02 12 5 12 C4.67 12.99 4.34 13.98 4 15 C3.67 14.67 3.34 14.34 3 14 C2.67 14.66 2.34 15.32 2 16 C1.34 16 0.68 16 0 16 C-0.33 15.34 -0.66 14.68 -1 14 C-1.99 14.495 -1.99 14.495 -3 15 C-3 14.01 -3 13.02 -3 12 C-3.99 11.67 -4.98 11.34 -6 11 C-5.67 10.67 -5.34 10.34 -5 10 C-5.66 9.67 -6.32 9.34 -7 9 C-7 8.34 -7 7.68 -7 7 C-6.34 6.67 -5.68 6.34 -5 6 C-5.33 5.34 -5.66 4.68 -6 4 C-5.01 4 -4.02 4 -3 4 C-2.67 3.01 -2.34 2.02 -2 1 C-1.67 1.33 -1.34 1.66 -1 2 C-0.67 1.34 -0.34 0.68 0 0 Z M-1 5 C-1.33 6.65 -1.66 8.3 -2 10 C0.475 10.495 0.475 10.495 3 11 C3.33 10.34 3.66 9.68 4 9 C2.68799596 7.64567325 1.35368596 6.31266518 0 5 C-0.33 5 -0.66 5 -1 5 Z " fill="#000000" transform="translate(7,0)"/>
</svg>
